<?xml version="1.0" standalone="no"?>
<!DOCTYPE svg PUBLIC "-//W3C//DTD SVG 20010904//EN"
 "http://www.w3.org/TR/2001/REC-SVG-20010904/DTD/svg10.dtd">
<svg version="1.0" xmlns="http://www.w3.org/2000/svg"
 width="432.000000pt" height="432.000000pt" viewBox="0 0 432.000000 432.000000"
 preserveAspectRatio="xMidYMid meet">
<metadata>
Created by potrace 1.14, written by Peter Selinger 2001-2017
</metadata>
<g transform="translate(0.000000,432.000000) scale(0.100000,-0.100000)"
fill="#000000" stroke="none">
<path d="M868 3168 c-104 -138 -247 -279 -406 -401 -44 -34 -60 -52 -55 -61 4
-8 36 -35 71 -60 147 -108 353 -318 415 -423 27 -47 56 -43 94 10 48 65 134
162 173 194 19 15 31 22 26 16 -4 -8 -2 -13 4 -13 7 0 9 8 5 19 -4 14 13 35
74 89 44 39 108 90 141 113 33 24 60 50 60 59 0 9 -40 47 -89 83 -109 81 -258
229 -358 355 -41 50 -80 92 -87 92 -8 0 -38 -33 -68 -72z m137 -90 c106 -71
335 -321 335 -367 0 -58 -290 -359 -377 -392 -33 -12 -82 16 -188 111 -135
120 -235 240 -235 283 0 43 127 190 263 304 127 108 130 109 202 61z"/>
<path d="M874 3037 c-128 -94 -304 -284 -304 -327 0 -58 311 -360 371 -360 35
0 108 57 226 176 112 113 150 172 132 206 -49 93 -308 348 -354 348 -7 0 -39
-19 -71 -43z m96 -119 c29 -85 30 -93 10 -93 -12 0 -16 -17 -18 -82 l-3 -83
36 0 c45 0 103 24 112 46 8 21 -21 44 -54 44 -13 0 -23 2 -23 4 0 2 -3 12 -7
22 -5 15 -2 16 33 10 39 -8 94 -54 94 -80 0 -31 -94 -76 -159 -76 l-26 0 3
-90 3 -90 -36 0 -37 0 4 90 3 90 -26 0 c-69 0 -179 52 -179 85 0 15 38 49 78
69 29 15 35 15 63 1 35 -18 34 -20 -13 -43 -46 -24 -48 -49 -4 -67 19 -8 47
-15 61 -15 25 0 25 1 25 86 0 50 -4 83 -9 79 -5 -3 -13 0 -16 6 -8 11 43 159
54 159 3 0 18 -33 31 -72z"/>
<path d="M1620 2700 l0 -400 105 0 105 0 0 400 0 400 -105 0 -105 0 0 -400z"/>
<path d="M1960 2700 l0 -400 300 0 300 0 0 75 0 75 -192 2 -193 3 0 85 0 85
178 3 177 2 0 75 0 75 -180 0 -180 0 0 85 0 85 195 0 195 0 0 75 0 75 -300 0
-300 0 0 -400z"/>
<path d="M2695 3088 c-3 -7 -4 -186 -3 -398 l3 -385 300 0 300 0 0 70 0 70
-192 3 -193 2 0 90 0 90 180 0 181 0 -3 73 -3 72 -177 3 -178 2 0 85 0 85 195
0 196 0 -3 73 -3 72 -298 3 c-233 2 -299 0 -302 -10z"/>
<path d="M3430 2700 l0 -400 300 0 300 0 0 75 0 75 -192 2 -193 3 0 85 0 85
178 3 177 2 0 75 0 75 -180 0 -181 0 3 83 3 82 193 3 192 2 0 75 0 75 -300 0
-300 0 0 -400z"/>
<path d="M420 2150 c0 -7 607 -10 1800 -10 1193 0 1800 3 1800 10 0 7 -607 10
-1800 10 -1193 0 -1800 -3 -1800 -10z"/>
<path d="M2693 2085 c-13 -9 -23 -27 -23 -39 0 -13 -7 -26 -15 -30 -8 -3 -15
-12 -15 -21 0 -8 7 -15 15 -15 12 0 15 -15 15 -75 0 -73 1 -75 25 -75 24 0 25
2 25 71 0 62 2 71 20 76 27 7 26 39 -2 46 -18 5 -19 8 -8 21 7 9 19 16 27 16
8 0 13 7 11 18 -4 23 -47 27 -75 7z"/>
<path d="M3358 2089 c-10 -5 -18 -18 -18 -29 0 -10 -7 -25 -15 -34 -17 -17
-20 -46 -5 -46 6 0 10 -32 10 -75 l0 -75 30 0 30 0 0 76 0 75 38 -3 37 -3 3
-72 c3 -70 4 -73 27 -73 24 0 25 2 25 75 0 68 2 75 20 75 26 0 26 30 0 37 -27
7 -22 37 8 41 30 5 28 30 -4 38 -41 10 -74 -10 -74 -46 0 -20 -5 -30 -15 -30
-8 0 -15 -8 -15 -17 -1 -17 -1 -17 -11 0 -5 9 -17 17 -25 17 -25 0 -12 35 14
38 15 2 22 9 20 20 -4 20 -54 27 -80 11z"/>
<path d="M462 1974 c3 -109 4 -116 28 -134 29 -22 104 -27 145 -8 34 15 47 66
43 171 -3 81 -3 82 -30 85 l-28 3 -1 -83 c-1 -111 -8 -132 -43 -136 -48 -6
-56 10 -56 119 l0 99 -31 0 -31 0 4 -116z"/>
<path d="M970 2070 c0 -16 7 -20 30 -20 23 0 30 4 30 20 0 16 -7 20 -30 20
-23 0 -30 -4 -30 -20z"/>
<path d="M1870 2070 c0 -15 7 -20 25 -20 18 0 25 5 25 20 0 15 -7 20 -25 20
-18 0 -25 -5 -25 -20z"/>
<path d="M2998 1983 c-3 -104 -4 -108 -26 -111 -17 -3 -25 2 -29 18 -4 16 -12
20 -32 18 -21 -2 -26 -8 -23 -28 3 -34 37 -60 79 -60 75 0 93 35 93 176 l0 94
-30 0 -29 0 -3 -107z"/>
<path d="M1998 2069 c-10 -5 -18 -19 -18 -29 0 -11 -4 -20 -10 -20 -5 0 -10
-9 -10 -20 0 -11 5 -20 10 -20 6 0 10 -29 10 -68 0 -77 9 -92 57 -92 26 0 33
4 33 20 0 11 -6 20 -14 20 -18 0 -26 22 -26 72 0 31 4 41 20 45 11 3 20 13 20
23 0 10 -9 20 -20 23 -14 3 -20 14 -20 31 0 28 -6 31 -32 15z"/>
<path d="M732 1921 c3 -95 3 -96 28 -96 24 0 25 3 30 69 4 51 10 72 22 80 28
17 42 -7 46 -78 4 -58 6 -65 28 -69 24 -4 24 -3 24 75 0 114 -3 117 -100 116
l-81 -1 3 -96z"/>
<path d="M977 2014 c-4 -4 -7 -47 -7 -96 l0 -88 30 0 31 0 -3 93 c-3 84 -5 92
-23 95 -12 2 -24 0 -28 -4z"/>
<path d="M1060 2008 c1 -7 16 -49 35 -93 30 -71 36 -80 62 -83 28 -3 30 1 61
80 39 99 39 108 8 108 -20 0 -27 -8 -41 -50 -9 -27 -20 -52 -24 -55 -5 -2 -17
19 -28 48 -17 43 -25 53 -47 55 -17 2 -26 -1 -26 -10z"/>
<path d="M1306 2001 c-41 -45 -38 -135 7 -166 42 -29 137 -9 137 29 0 20 -43
28 -56 11 -14 -19 -38 -19 -54 0 -18 22 -10 26 54 26 39 1 59 6 63 15 8 21
-17 83 -37 94 -31 17 -95 12 -114 -9z m88 -37 c11 -28 7 -34 -22 -34 -36 0
-44 8 -31 31 12 23 45 25 53 3z"/>
<path d="M1505 2012 c-3 -3 -5 -45 -5 -94 l0 -88 30 0 c30 0 30 0 30 58 0 60
11 82 41 82 15 0 29 19 29 40 0 9 -116 11 -125 2z"/>
<path d="M1660 2000 c-40 -40 -18 -79 58 -100 26 -6 42 -16 39 -23 -6 -19 -37
-20 -56 -3 -16 14 -61 12 -61 -3 1 -47 121 -70 160 -31 24 24 26 62 5 80 -8 6
-33 18 -57 24 -23 7 -44 18 -46 24 -5 15 44 16 53 2 8 -13 42 -13 50 1 4 5 -1
19 -11 30 -24 27 -106 27 -134 -1z"/>
<path d="M1870 1925 c0 -95 0 -95 25 -95 25 0 25 0 25 95 0 95 0 95 -25 95
-25 0 -25 0 -25 -95z"/>
<path d="M2090 2013 c0 -4 14 -49 32 -99 33 -95 32 -124 -2 -124 -13 0 -20 -7
-20 -20 0 -17 7 -20 39 -20 21 0 43 6 49 13 11 13 92 233 92 249 0 5 -12 8
-27 6 -22 -2 -29 -11 -42 -50 -9 -27 -20 -49 -25 -50 -5 -2 -17 20 -26 47 -14
42 -21 51 -43 53 -15 2 -27 0 -27 -5z"/>
<path d="M2448 1990 c-28 -28 -30 -36 -25 -78 7 -60 41 -92 98 -92 88 0 131
100 73 169 -22 26 -33 31 -71 31 -36 0 -50 -6 -75 -30z m110 -42 c11 -23 11
-33 0 -55 -25 -53 -81 -34 -81 27 0 61 56 80 81 28z"/>
<path d="M3124 1999 c-16 -17 -16 -22 -4 -29 20 -13 27 -12 49 2 20 12 56 4
47 -11 -3 -5 -26 -14 -51 -20 -63 -16 -86 -69 -46 -105 16 -15 30 -16 88 -11
l68 7 -4 82 c-1 44 -8 87 -13 94 -6 7 -33 12 -63 12 -40 0 -56 -5 -71 -21z
m96 -103 c0 -20 -27 -39 -45 -32 -18 7 -20 32 -2 39 24 10 47 7 47 -7z"/>
<path d="M3595 2012 c-3 -3 -5 -45 -5 -94 l0 -88 28 0 c26 0 27 2 24 38 -2 21
0 53 5 72 7 28 14 35 34 35 23 0 24 -3 27 -72 l3 -73 29 0 30 0 0 73 c0 104
-11 116 -100 115 -39 -1 -72 -4 -75 -6z"/>
<path d="M3834 1999 c-16 -17 -16 -22 -4 -29 20 -13 27 -12 49 2 20 12 56 4
47 -11 -3 -5 -26 -14 -51 -20 -63 -16 -86 -69 -46 -105 16 -15 30 -16 88 -11
l68 7 -4 82 c-1 44 -8 87 -13 94 -6 7 -33 12 -63 12 -40 0 -56 -5 -71 -21z
m96 -103 c0 -20 -27 -39 -45 -32 -18 7 -20 32 -2 39 24 10 47 7 47 -7z"/>
<path d="M939 1709 c-15 -5 -33 -24 -40 -41 -19 -47 3 -78 71 -101 59 -20 75
-34 58 -54 -17 -20 -65 -16 -81 8 -20 27 -63 23 -59 -6 6 -32 36 -56 80 -62
80 -11 122 15 122 74 0 48 -22 70 -87 89 -57 17 -70 39 -28 50 17 4 32 1 44
-10 10 -9 29 -16 43 -16 21 0 25 4 21 19 -12 47 -87 73 -144 50z"/>
<path d="M1600 1675 c0 -33 -2 -35 -25 -29 -75 19 -128 -65 -95 -150 14 -38
42 -48 110 -40 l60 7 0 123 0 124 -25 0 c-22 0 -25 -4 -25 -35z m-16 -81 c32
-32 9 -115 -28 -101 -33 13 -40 69 -13 105 13 16 22 15 41 -4z"/>
<path d="M2367 1703 c-4 -3 -7 -60 -7 -125 l0 -118 94 0 c100 0 109 4 121 53
6 21 2 36 -13 56 -15 20 -18 31 -10 39 16 16 12 61 -7 82 -15 17 -31 20 -95
20 -42 0 -80 -3 -83 -7z m133 -48 c21 -26 4 -45 -40 -45 -35 0 -40 3 -40 23 0
13 3 27 7 30 12 13 60 7 73 -8z m18 -119 c5 -24 -14 -36 -60 -36 -36 0 -38 2
-38 31 0 30 1 30 47 27 37 -2 49 -7 51 -22z"/>
<path d="M3407 1703 c-4 -3 -7 -60 -7 -125 l0 -118 25 0 c24 0 25 3 25 54 0
66 27 109 54 87 12 -10 16 -31 16 -77 0 -62 1 -64 25 -64 25 0 25 1 25 80 0
73 -2 81 -24 95 -17 11 -35 14 -60 9 -36 -6 -36 -6 -36 30 0 28 -4 36 -18 36
-10 0 -22 -3 -25 -7z"/>
<path d="M1158 1689 c-10 -5 -18 -15 -18 -21 0 -6 -8 -20 -17 -31 -17 -18 -17
-19 0 -32 13 -9 17 -27 17 -78 0 -69 6 -77 55 -77 33 0 40 16 15 37 -25 22
-30 113 -5 113 8 0 15 9 15 19 0 10 -7 21 -15 25 -8 3 -15 17 -15 31 0 27 -6
30 -32 14z"/>
<path d="M2158 1689 c-10 -5 -18 -15 -18 -21 0 -6 -7 -19 -16 -29 -15 -16 -15
-20 0 -41 10 -14 16 -43 16 -79 0 -43 4 -58 16 -63 20 -8 59 -8 67 0 9 10 -4
34 -19 34 -10 0 -14 15 -14 55 0 42 3 55 15 55 8 0 15 9 15 20 0 11 -7 20 -15
20 -10 0 -15 10 -15 30 0 32 -5 35 -32 19z"/>
<path d="M1740 1637 c-30 -15 -52 -75 -43 -117 12 -60 90 -90 141 -54 45 32
10 62 -38 32 -16 -10 -23 -10 -36 4 -25 25 -8 38 52 38 51 0 54 1 54 26 0 32
-50 84 -82 84 -13 0 -34 -6 -48 -13z m64 -43 c20 -20 12 -34 -19 -34 -32 0
-42 20 -20 37 23 16 20 16 39 -3z"/>
<path d="M1991 1641 c-8 -5 -29 -7 -48 -4 l-33 6 0 -92 0 -91 30 0 30 0 0 64
c0 44 5 67 15 76 28 23 45 -5 45 -76 0 -62 1 -64 25 -64 25 0 25 1 25 79 0 59
-4 84 -16 95 -17 18 -51 21 -73 7z"/>
<path d="M2658 1643 l-38 -4 0 -90 c0 -88 0 -89 25 -89 23 0 25 4 25 43 0 51
20 93 42 89 18 -3 34 31 23 48 -3 5 -14 9 -23 8 -9 -1 -34 -3 -54 -5z"/>
<path d="M2793 1635 c-13 -9 -23 -23 -23 -31 0 -17 41 -19 57 -3 13 13 43 5
43 -10 0 -5 -22 -17 -50 -26 -52 -17 -66 -38 -56 -80 8 -31 27 -36 103 -29 50
5 63 10 59 21 -4 8 -6 42 -6 76 0 34 -4 68 -9 76 -13 21 -92 25 -118 6z m75
-117 c-2 -17 -10 -23 -27 -23 -32 0 -39 23 -9 34 35 15 40 13 36 -11z"/>
<path d="M3046 1643 c-4 -4 -22 -6 -41 -5 l-35 3 0 -91 c0 -89 0 -90 25 -90
24 0 25 3 25 58 0 47 4 63 21 78 20 18 21 18 35 -1 8 -11 14 -43 14 -77 0 -55
1 -58 25 -58 25 0 25 1 25 79 0 71 -2 82 -22 95 -23 17 -60 21 -72 9z"/>
<path d="M3235 1638 c-34 -19 -44 -41 -45 -91 0 -38 5 -53 26 -74 22 -22 32
-25 72 -20 45 5 72 25 72 54 0 19 -47 16 -58 -3 -13 -23 -45 -13 -56 17 -19
55 18 107 54 74 40 -36 74 -8 36 30 -27 27 -67 32 -101 13z"/>
<path d="M1260 1561 c0 -102 11 -116 84 -107 28 3 59 6 69 6 15 0 17 11 17 90
0 88 -1 90 -24 90 -22 0 -24 -5 -29 -66 -5 -74 -18 -95 -45 -78 -13 8 -18 28
-20 78 -3 63 -4 66 -27 66 -24 0 -25 -2 -25 -79z"/>
<path d="M1300 1255 c0 -31 -12 -31 -57 -4 -49 31 -53 16 -4 -17 23 -14 41
-29 41 -32 0 -3 -15 -19 -32 -35 l-33 -29 36 20 c25 14 40 17 47 10 15 -15 33
57 22 88 -12 31 -20 31 -20 -1z"/>
<path d="M25 1080 c-3 -5 -2 -10 4 -10 5 0 13 5 16 10 3 6 2 10 -4 10 -5 0
-13 -4 -16 -10z"/>
<path d="M334 736 c-9 -22 4 -36 32 -36 21 0 25 4 22 23 -4 26 -45 37 -54 13z"/>
<path d="M255 485 c-45 -27 -60 -31 -49 -12 4 6 -6 -3 -22 -21 -16 -18 -47
-49 -69 -68 -24 -21 -29 -29 -13 -19 15 9 28 15 30 14 2 -2 39 23 83 55 96 71
89 65 84 71 -3 2 -23 -7 -44 -20z"/>
</g>
</svg>
